<svg width="20" height="17" viewBox="0 0 20 17" fill="none" xmlns="http://www.w3.org/2000/svg">
<path d="M17.25 7C17.9503 6.99997 18.6242 7.26709 19.1343 7.74689C19.6444 8.22669 19.9522 8.88302 19.995 9.582L20 9.75V16.25C19.9999 16.44 19.9278 16.6229 19.798 16.7618C19.6683 16.9006 19.4907 16.9851 19.3011 16.998C19.1115 17.011 18.9241 16.9515 18.7767 16.8316C18.6293 16.7117 18.5329 16.5402 18.507 16.352L18.5 16.25V14H1.5V16.25C1.49999 16.4312 1.43436 16.6063 1.31523 16.7429C1.19611 16.8795 1.03155 16.9684 0.852 16.993L0.75 17C0.568762 17 0.393658 16.9344 0.257069 16.8152C0.120481 16.6961 0.0316483 16.5316 0.00699997 16.352L3.38855e-09 16.25V9.75C-3.47392e-05 9.04971 0.267092 8.37579 0.746893 7.8657C1.22669 7.35561 1.88302 7.04778 2.582 7.005L2.75 7H17.25ZM4.75 3.38856e-09H15.25C15.9503 -3.47392e-05 16.6242 0.267092 17.1343 0.746893C17.6444 1.22669 17.9522 1.88302 17.995 2.582L18 2.75V6H15L14.993 5.883C14.9667 5.65978 14.8659 5.45194 14.707 5.29301C14.5481 5.13408 14.3402 5.03332 14.117 5.007L14 5H12C11.7551 5.00003 11.5187 5.08996 11.3356 5.25272C11.1526 5.41547 11.0357 5.63975 11.007 5.883L11 6H9L8.993 5.883C8.96668 5.65978 8.86592 5.45194 8.70699 5.29301C8.54806 5.13408 8.34022 5.03332 8.117 5.007L8 5H6C5.75507 5.00003 5.51866 5.08996 5.33563 5.25272C5.15259 5.41547 5.03566 5.63975 5.007 5.883L5 6H2V2.75C1.99997 2.04971 2.26709 1.37579 2.74689 0.865703C3.22669 0.355612 3.88302 0.0477813 4.582 0.00500012L4.75 3.38856e-09Z" fill="#A4A4A4"/>
</svg>
