<svg width="20" height="22" viewBox="0 0 20 22" fill="none" xmlns="http://www.w3.org/2000/svg">
<path d="M1.73926 0.852539C2.15731 0.506233 2.54593 0.433114 2.95117 0.554688L2.9668 0.55957L2.98242 0.563477L9.12695 1.97754L9.13379 1.97949C10.2556 2.21988 11.154 2.78825 11.8477 3.69531L11.8613 3.71094L18.9248 12.1885C19.3884 12.8103 19.5542 13.4032 19.4844 13.9854V13.9893C19.4094 14.6641 19.1268 15.2136 18.6299 15.6611L12.498 20.8232C12.064 21.1843 11.5464 21.3691 10.9189 21.3691C10.3415 21.3691 9.81686 21.159 9.33398 20.6943L9.12891 20.4795L2.06836 12.0068H2.06934C1.48107 11.2774 1.09361 10.4212 0.914062 9.42676L0.850586 8.99219L0.5 2.72168C0.501257 2.08877 0.687706 1.73898 0.958984 1.54004L0.976562 1.52637L0.994141 1.51172L1.73926 0.852539ZM2.43066 1.49609L1.59082 2.15918L1.38379 2.32227L1.40234 2.58496L1.84375 9.08398C1.85241 9.94428 2.18536 10.7613 2.79102 11.5264L2.79883 11.5361L9.87207 20.0234V20.0225C10.1229 20.3539 10.4865 20.5138 10.8936 20.5342C11.3041 20.5547 11.6839 20.4385 11.9961 20.1709L11.9951 20.1699L18.1367 15.002L18.1729 14.9717L18.2021 14.9365C18.3468 14.7597 18.4684 14.5877 18.5557 14.4229C18.6284 14.2854 18.6901 14.1226 18.7061 13.9482C18.7581 13.7408 18.765 13.5268 18.7061 13.3145C18.6458 13.0975 18.5261 12.9113 18.375 12.752H18.376L11.3027 4.26465L11.2881 4.24707L11.2725 4.23145L11.0117 3.9834C10.399 3.42974 9.75684 3.05624 9.08398 2.90332L2.8584 1.40234L2.62207 1.34473L2.43066 1.49609ZM11.4053 14.8984C11.6507 14.8985 11.8563 14.9824 12.0459 15.1719C12.2356 15.3616 12.3193 15.5678 12.3193 15.8135C12.3192 16.0675 12.2364 16.2762 12.0586 16.4639C11.895 16.6365 11.6911 16.7275 11.4053 16.7275C11.1193 16.7275 10.9147 16.6367 10.751 16.4639C10.5733 16.2762 10.4903 16.0675 10.4902 15.8135C10.4902 15.5679 10.574 15.3616 10.7637 15.1719C10.9534 14.9822 11.1596 14.8984 11.4053 14.8984ZM5.89355 10.165C6.01342 10.1087 6.09562 10.1147 6.18652 10.1602L6.22168 10.1777L6.25879 10.1895L14.8984 12.9209V12.9219C15.01 12.9637 15.0929 13.0345 15.1572 13.1631C15.2127 13.2739 15.216 13.361 15.1855 13.4531C15.1115 13.6059 15.0366 13.6909 14.9717 13.7373C14.9091 13.782 14.832 13.8105 14.7207 13.8105H14.4902L5.91406 11.0977C5.73405 11.0302 5.67029 10.95 5.6416 10.8838C5.60779 10.8054 5.58592 10.6581 5.64941 10.3984C5.68899 10.3065 5.75814 10.2288 5.89355 10.165ZM8.57617 7.38379C8.86203 7.38384 9.06585 7.47474 9.22949 7.64746C9.40734 7.83519 9.49019 8.04371 9.49023 8.29785C9.49023 8.54348 9.40651 8.74974 9.2168 8.93945C9.02722 9.12892 8.82159 9.21284 8.57617 9.21289C8.33054 9.21289 8.12428 9.12916 7.93457 8.93945C7.74486 8.74974 7.66113 8.54348 7.66113 8.29785C7.66118 8.04382 7.74418 7.83513 7.92188 7.64746C8.08557 7.47468 8.29017 7.38379 8.57617 7.38379ZM4.33203 4.55469C4.47348 4.55469 4.56471 4.59604 4.6416 4.67285C4.71849 4.74974 4.7607 4.84099 4.76074 4.98242C4.76074 5.12396 4.71851 5.21507 4.6416 5.29199C4.56468 5.36892 4.47359 5.41113 4.33203 5.41113C4.19056 5.4111 4.09936 5.36889 4.02246 5.29199C3.94565 5.2151 3.9043 5.12387 3.9043 4.98242C3.90434 4.84099 3.94557 4.74974 4.02246 4.67285C4.09935 4.59597 4.19058 4.55472 4.33203 4.55469Z" fill="#090723" stroke="black"/>
</svg>
