<svg width="20" height="20" viewBox="0 0 20 20" fill="none" xmlns="http://www.w3.org/2000/svg">
<path d="M19.1976 0C19.1026 0 19.0051 0.0174979 18.9076 0.0574929L4.49944 5.84677H0.39995C0.179978 5.84677 0 6.03175 0 6.26172V13.7358C0 13.9658 0.179978 14.1507 0.39995 14.1507H2.93963C2.84714 14.4407 2.79965 14.7482 2.79965 15.0606C2.79965 16.7079 4.14448 18.0477 5.79928 18.0477C7.1841 18.0477 8.35146 17.1079 8.69641 15.838L18.9101 19.9425C19.0076 19.98 19.1051 20 19.2001 20C19.6225 20 20 19.645 20 19.1701V0.829896C19.9975 0.354956 19.6225 0 19.1976 0ZM5.79928 16.2555C5.13686 16.2555 4.59943 15.7205 4.59943 15.0606C4.59943 14.7807 4.69691 14.5132 4.87439 14.3007L6.99663 15.1531C6.94663 15.768 6.4292 16.2555 5.79928 16.2555Z" fill="#090723"/>
</svg>
