<svg width="320" height="320" viewBox="0 0 320 320" fill="none" xmlns="http://www.w3.org/2000/svg">
<g clip-path="url(#clip0_32_1773)">
<path d="M60.8439 232.797C58.9109 232.797 57.3439 234.364 57.3439 236.297C57.3439 238.23 58.9109 239.797 60.8439 239.797C62.7769 239.797 64.3439 238.23 64.3439 236.297C64.3439 234.364 62.7769 232.797 60.8439 232.797Z" fill="#FCD240"/>
<path d="M280.302 264.347C278.369 264.347 276.802 265.914 276.802 267.847C276.802 269.78 278.369 271.347 280.302 271.347C282.235 271.347 283.802 269.78 283.802 267.847C283.802 265.914 282.235 264.347 280.302 264.347Z" fill="#FCD240"/>
<path d="M174.428 62.5898C172.495 62.5898 170.928 64.1568 170.928 66.0898C170.928 68.0228 172.495 69.5898 174.428 69.5898C176.361 69.5898 177.928 68.0228 177.928 66.0898C177.928 64.1568 176.361 62.5898 174.428 62.5898Z" fill="#FCD240"/>
<path d="M117.091 55C115.158 55 113.591 56.567 113.591 58.5C113.591 60.433 115.158 62 117.091 62C119.024 62 120.591 60.433 120.591 58.5C120.591 56.567 119.024 55 117.091 55Z" fill="#FCD240"/>
<path d="M241.85 177.315C239.917 177.315 238.35 178.882 238.35 180.815C238.35 182.748 239.917 184.315 241.85 184.315C243.783 184.315 245.35 182.748 245.35 180.815C245.35 178.882 243.783 177.315 241.85 177.315Z" fill="#FCD240"/>
<path d="M46.5 177.78C44.567 177.78 43 179.347 43 181.28C43 183.213 44.567 184.78 46.5 184.78C48.433 184.78 50 183.213 50 181.28C50 179.347 48.433 177.78 46.5 177.78Z" fill="#FCD240"/>
<path d="M316.268 137.741C314.335 137.741 312.768 139.308 312.768 141.241C312.768 143.174 314.335 144.741 316.268 144.741C318.201 144.741 319.768 143.174 319.768 141.241C319.768 139.308 318.201 137.741 316.268 137.741Z" fill="#FCD240"/>
<path d="M225.667 139.741C223.734 139.741 222.167 141.308 222.167 143.241C222.167 145.174 223.734 146.741 225.667 146.741C227.6 146.741 229.167 145.174 229.167 143.241C229.167 141.308 227.6 139.741 225.667 139.741Z" fill="#FCD240"/>
<path d="M166.24 135C189.568 135 208.48 153.912 208.48 177.24C208.48 200.568 189.568 219.48 166.24 219.48C142.912 219.48 124 200.568 124 177.24C124 153.912 142.912 135 166.24 135Z" fill="#FCD240"/>
<path d="M176.91 166.02L161.798 181.129L155.487 174.82C154.114 173.445 151.883 173.445 150.51 174.82C149.135 176.194 149.135 178.422 150.51 179.797L159.31 188.597C159.996 189.285 160.897 189.628 161.798 189.628C162.7 189.628 163.6 189.285 164.287 188.597L181.887 170.997C183.261 169.622 183.261 167.394 181.887 166.02C180.514 164.645 178.282 164.645 176.91 166.02Z" fill="white"/>
<path d="M211.773 154.258C215.269 161.166 217.24 168.975 217.24 177.24C217.24 186.82 214.593 195.786 209.991 203.447" stroke="#FCD240" stroke-width="4"/>
</g>
<defs>
<clipPath id="clip0_32_1773">
<rect width="320" height="320" fill="white"/>
</clipPath>
</defs>
</svg>
