<svg width="22" height="18" viewBox="0 0 22 18" fill="none" xmlns="http://www.w3.org/2000/svg">
<path d="M20 6C18.9 6 18 6.9 18 8V12H4V8C4 6.9 3.1 6 2 6C0.9 6 0 6.9 0 8V13C0 14.65 1.35 16 3 16V17C3 17.55 3.45 18 4 18C4.55 18 5 17.55 5 17V16H17V17C17 17.55 17.45 18 18 18C18.55 18 19 17.55 19 17V16C20.65 16 22 14.65 22 13V8C22 6.9 21.1 6 20 6Z" fill="#A4A4A4"/>
<path d="M6 8V10H16V8C16 6.14 17.28 4.59 19 4.14V3C19 1.35 17.65 0 16 0H6C4.35 0 3 1.35 3 3V4.14C4.72 4.59 6 6.14 6 8Z" fill="#A4A4A4"/>
</svg>
